HIERARCHY
ROOT Hips
{
	OFFSET 51.662300 -7.528738 50.564301
	CHANNELS 6 Xposition Yposition Zposition Xrotation Yrotation Zrotation
	JOINT spine
	{
		OFFSET 0.000000 -0.507026 8.817039
		CHANNELS 3 Xrotation Yrotation Zrotation
		JOINT spine1
		{
			OFFSET 0.000000 -0.000002 10.776604
			CHANNELS 3 Xrotation Yrotation Zrotation
			JOINT spine2
			{
				OFFSET 0.000000 -0.000002 10.325897
				CHANNELS 3 Xrotation Yrotation Zrotation
				JOINT Neck
				{
					OFFSET 0.000000 -1.263954 26.511002
					CHANNELS 3 Xrotation Yrotation Zrotation
					JOINT Head
					{
						OFFSET 0.000000 -0.000002 8.009659
						CHANNELS 3 Xrotation Yrotation Zrotation
						End Site
						{
							OFFSET 0.000000 6.393857 19.387894
						}
					}
				}
				JOINT RightShoulder
				{
					OFFSET -4.347950 0.605421 11.151199
					CHANNELS 3 Xrotation Yrotation Zrotation
					JOINT RightArm
					{
						OFFSET 0.000000 -0.000002 14.625801
						CHANNELS 3 Xrotation Yrotation Zrotation
						JOINT RightArmRoll
						{
							OFFSET 0.000000 -0.000001 7.383400
							CHANNELS 3 Xrotation Yrotation Zrotation
							JOINT RightForeArm
							{
								OFFSET 0.000000 -0.000003 21.505203
								CHANNELS 3 Xrotation Yrotation Zrotation
								JOINT RightForeArmRoll
								{
									OFFSET 0.000000 -0.000001 8.285324
									CHANNELS 3 Xrotation Yrotation Zrotation
									JOINT RightHand
									{
										OFFSET 0.000000 -0.000003 16.626801
										CHANNELS 3 Xrotation Yrotation Zrotation
										End Site
										{
											OFFSET 0.000000 0.000000 0.100006
										}
									}
								}
							}
						}
					}
				}
				JOINT LeftShoulder
				{
					OFFSET 4.347950 0.605421 11.151199
					CHANNELS 3 Xrotation Yrotation Zrotation
					JOINT LeftArm
					{
						OFFSET 0.000000 -0.000002 14.625801
						CHANNELS 3 Xrotation Yrotation Zrotation
						JOINT LeftArmRoll
						{
							OFFSET 0.000000 -0.000001 7.383400
							CHANNELS 3 Xrotation Yrotation Zrotation
							JOINT LeftForeArm
							{
								OFFSET 0.000000 -0.000003 21.505203
								CHANNELS 3 Xrotation Yrotation Zrotation
								JOINT LeftForeArmRoll
								{
									OFFSET 0.000000 -0.000001 8.285324
									CHANNELS 3 Xrotation Yrotation Zrotation
									JOINT LeftHand
									{
										OFFSET 0.000000 -0.000003 16.626801
										CHANNELS 3 Xrotation Yrotation Zrotation
										End Site
										{
											OFFSET 0.000000 0.000000 0.100006
										}
									}
								}
							}
						}
					}
				}
			}
		}
	}
	JOINT RightUpLeg
	{
		OFFSET -7.815102 1.202170 -1.433090
		CHANNELS 3 Xrotation Yrotation Zrotation
		JOINT RightUpLegRoll
		{
			OFFSET 0.000000 -0.000003 19.495895
			CHANNELS 3 Xrotation Yrotation Zrotation
			JOINT RightLeg
			{
				OFFSET 0.000000 0.000004 -24.142700
				CHANNELS 3 Xrotation Yrotation Zrotation
				JOINT RightLegRoll
				{
					OFFSET 0.000000 -0.000004 24.221703
					CHANNELS 3 Xrotation Yrotation Zrotation
					JOINT RightFoot
					{
						OFFSET 0.000000 -0.000003 20.160500
						CHANNELS 3 Xrotation Yrotation Zrotation
						JOINT RightToeBase
						{
							OFFSET 0.000000 -0.000003 16.853203
							CHANNELS 3 Xrotation Yrotation Zrotation
							End Site
							{
								OFFSET 0.007145 0.940779 8.161873
							}
						}
					}
				}
			}
		}
	}
	JOINT LeftUpLeg
	{
		OFFSET 7.815102 1.202170 -1.433090
		CHANNELS 3 Xrotation Yrotation Zrotation
		JOINT LeftUpLegRoll
		{
			OFFSET 0.000000 -0.000003 19.496002
			CHANNELS 3 Xrotation Yrotation Zrotation
			JOINT LeftLeg
			{
				OFFSET 0.000000 -0.000004 24.142601
				CHANNELS 3 Xrotation Yrotation Zrotation
				JOINT LeftLegRoll
				{
					OFFSET 0.000000 -0.000004 24.445602
					CHANNELS 3 Xrotation Yrotation Zrotation
					JOINT LeftFoot
					{
						OFFSET 0.000000 -0.000003 19.936592
						CHANNELS 3 Xrotation Yrotation Zrotation
						JOINT LeftToeBase
						{
							OFFSET 0.000000 -0.000003 16.853195
							CHANNELS 3 Xrotation Yrotation Zrotation
							End Site
							{
								OFFSET -0.032013 0.940780 8.161865
							}
						}
					}
				}
			}
		}
	}
}
MOTION
Frames: 12
Frame Time: 0.041667
52.147800 -7.920575 51.044197 3.296272 3.608824 3.461331 2.014012 -0.851136 -0.276518 8.027968 -1.713898 -0.514195 9.673330 -1.719869 -0.493623 28.100365 0.236283 1.113965 -6.677458 5.114983 0.877546 -6.734410 -53.084688 -7.491111 -53.982984 -128.541606 -76.093628 0.000002 -0.000000 0.000001 64.325397 -9.499808 4.532578 -0.000001 0.000009 -2.999999 -5.000242 -7.998755 0.000156 -6.357155 61.031900 7.707518 -55.811818 127.422507 74.351315 0.000002 0.000018 0.000001 64.266841 6.620757 -1.931410 -0.000003 -0.000007 2.999989 -5.000221 7.998690 -0.000142 -98.499422 -167.629959 6.749741 -179.999991 0.000005 -1.515997 73.519733 0.571176 -0.257765 0.000005 0.000002 2.241180 75.977891 7.963587 -1.809276 25.456988 -7.347750 0.000003 -100.835695 175.266411 -0.646799 -0.000006 -0.000004 -1.377710 -108.105564 -4.324438 -4.308332 -0.000001 0.000001 -2.289339 75.560382 -6.568865 -2.600550 25.460184 7.353842 -0.000040 
52.077103 -7.909147 51.003403 3.173799 3.623467 3.442274 2.004221 -0.853001 -0.285190 8.008252 -1.719536 -0.531550 9.653612 -1.725717 -0.510911 28.047234 0.224744 1.143684 -6.631639 5.105354 0.904184 -6.680729 -53.197932 -7.435726 -53.966008 -128.603774 -75.914411 0.000002 -0.000000 -0.000003 64.159799 -9.572934 4.555215 -0.000005 0.000004 -3.000003 -5.000238 -7.998759 0.000156 -6.355376 61.144851 7.714667 -56.080685 127.357019 74.496921 0.000001 0.000018 0.000002 64.130729 6.679655 -1.960453 -0.000002 -0.000011 2.999991 -5.000217 7.998689 -0.000142 -98.388936 -167.651242 6.796457 -179.999991 0.000005 -1.519002 73.507288 0.573101 -0.256332 0.000004 0.000002 2.242480 75.978212 7.971171 -1.833263 25.456993 -7.347750 0.000001 -100.743562 175.221072 -0.630476 -0.000005 -0.000003 -1.379690 -108.134503 -4.328804 -4.321149 -0.000000 0.000000 -2.291569 75.566242 -6.571623 -2.591456 25.460186 7.353842 -0.000043 
52.060501 -7.872156 50.995098 3.050668 3.637041 3.423277 1.994851 -0.854831 -0.293546 7.989364 -1.725003 -0.548276 9.634731 -1.731404 -0.527569 27.991205 0.209896 1.172588 -6.582680 5.097491 0.929406 -6.633424 -53.321907 -7.388863 -53.966540 -128.661120 -75.757009 0.000002 -0.000001 -0.000000 63.995615 -9.645246 4.577937 -0.000004 0.000007 -3.000001 -5.000239 -7.998753 0.000157 -6.350899 61.256729 7.718618 -56.348972 127.294113 74.642623 0.000002 0.000018 0.000001 63.993600 6.738646 -1.989363 -0.000001 -0.000010 2.999990 -5.000219 7.998690 -0.000141 -98.277570 -167.672087 6.843202 -179.999991 0.000005 -1.521993 73.495656 0.575175 -0.254721 0.000005 0.000002 2.243831 75.978082 7.978760 -1.857016 25.456988 -7.347752 0.000002 -100.649572 175.176061 -0.615824 -0.000005 -0.000004 -1.381771 -108.163176 -4.333411 -4.334009 -0.000001 0.000001 -2.293880 75.572840 -6.574556 -2.581944 25.460082 7.353849 -0.000038 
52.038902 -7.877128 50.972004 2.927041 3.649075 3.404297 1.985883 -0.856627 -0.301474 7.971289 -1.730269 -0.564150 9.616654 -1.736870 -0.543379 27.932573 0.191471 1.200152 -6.531417 5.091544 0.952700 -6.594912 -53.457917 -7.353540 -53.988284 -128.712415 -75.626327 0.000002 -0.000000 0.000001 63.832189 -9.716798 4.600871 -0.000004 0.000002 -3.000003 -5.000242 -7.998753 0.000159 -6.343266 61.366852 7.718773 -56.613109 127.235291 74.785135 0.000002 0.000017 0.000000 63.854865 6.797869 -2.018361 -0.000002 -0.000011 2.999987 -5.000218 7.998689 -0.000143 -98.165453 -167.692373 6.887925 -179.999991 0.000005 -1.524998 73.485022 0.577533 -0.252826 0.000003 0.000002 2.245230 75.977317 7.986253 -1.880537 25.456986 -7.347748 0.000003 -100.553519 175.131747 -0.602911 -0.000004 -0.000003 -1.383920 -108.191146 -4.337542 -4.346737 -0.000001 0.000001 -2.296259 75.580121 -6.577511 -2.572395 25.460080 7.353845 -0.000039 
52.014000 -7.894907 50.948395 2.803050 3.659078 3.385300 1.977312 -0.858388 -0.308866 7.954022 -1.735264 -0.578959 9.599379 -1.742056 -0.558127 27.871833 0.169200 1.225869 -6.478623 5.087654 0.973543 -6.567660 -53.607505 -7.332830 -54.031895 -128.758191 -75.523758 0.000002 0.000000 -0.000001 63.668865 -9.787811 4.624315 -0.000004 0.000003 -3.000002 -5.000238 -7.998754 0.000158 -6.332057 61.474728 7.714618 -56.874104 127.179953 74.926629 0.000001 0.000017 0.000003 63.714013 6.857300 -2.047320 -0.000001 -0.000009 2.999990 -5.000222 7.998691 -0.000141 -98.052837 -167.711757 6.929512 -179.999991 0.000005 -1.527007 73.475808 0.580261 -0.250490 0.000004 0.000002 2.246670 75.975527 7.993557 -1.903108 25.456986 -7.347750 0.000002 -100.455164 175.088580 -0.590772 -0.000005 -0.000003 -1.386120 -108.218262 -4.341788 -4.358475 -0.000001 0.000001 -2.298640 75.587900 -6.580366 -2.563303 25.460083 7.353848 -0.000048 
52.033199 -7.884518 50.951801 2.678849 3.666589 3.366253 1.969144 -0.860112 -0.315612 7.937534 -1.739959 -0.592482 9.582898 -1.746924 -0.571592 27.809397 0.142822 1.249238 -6.425113 5.085972 0.991415 -6.554157 -53.772075 -7.329841 -54.100900 -128.797082 -75.454193 0.000002 0.000000 0.000000 63.505227 -9.858314 4.648524 -0.000001 0.000004 -3.000000 -5.000239 -7.998757 0.000155 -6.316796 61.579797 7.705553 -57.127757 127.130461 75.062830 0.000002 0.000016 0.000001 63.570333 6.917100 -2.076349 -0.000002 -0.000009 2.999990 -5.000219 7.998689 -0.000141 -97.939831 -167.730267 6.968634 -179.999991 0.000006 -1.529998 73.468315 0.583493 -0.247602 0.000003 0.000003 2.248139 75.972461 8.000646 -1.924813 25.456984 -7.347749 0.000003 -100.354310 175.046806 -0.581635 -0.000004 -0.000004 -1.388349 -108.243943 -4.346040 -4.370155 -0.000001 0.000000 -2.300999 75.595946 -6.583064 -2.554974 25.460083 7.353838 -0.000043 
52.014702 -7.901046 50.931095 2.554586 3.671137 3.347113 1.961362 -0.861799 -0.321601 7.921836 -1.744304 -0.604502 9.567194 -1.751422 -0.583559 27.745565 0.112076 1.269714 -6.371694 5.086611 1.005797 -6.556931 -53.952877 -7.347748 -54.197066 -128.829143 -75.420349 0.000000 -0.000001 -0.000000 63.340572 -9.928478 4.673795 -0.000001 0.000002 -3.000000 -5.000244 -7.998751 0.000161 -6.297021 61.681546 7.691040 -57.373691 127.086584 75.194693 0.000003 0.000017 0.000004 63.423258 6.977372 -2.105485 -0.000000 -0.000010 2.999990 -5.000219 7.998690 -0.000141 -97.826662 -167.747711 7.004064 -179.999991 0.000007 -1.533003 73.462844 0.587326 -0.244006 0.000003 0.000002 2.249630 75.967734 8.007445 -1.945236 25.456988 -7.347750 0.000002 -100.250682 175.006932 -0.574578 -0.000004 -0.000004 -1.390600 -108.267883 -4.350182 -4.379758 -0.000000 0.000000 -2.303290 75.604272 -6.585395 -2.547784 25.459983 7.353844 -0.000042 
52.014801 -7.890246 50.933098 2.430422 3.672242 3.327832 1.953962 -0.863447 -0.326724 7.906896 -1.748250 -0.614801 9.552256 -1.755493 -0.593811 27.680730 0.076707 1.286800 -6.319158 5.089720 1.016165 -6.578696 -54.151608 -7.389905 -54.322021 -128.854346 -75.424686 0.000002 0.000001 0.000001 63.174325 -9.998486 4.700333 -0.000003 0.000006 -3.000000 -5.000243 -7.998753 0.000157 -6.272280 61.779403 7.670488 -57.610774 127.048868 75.321571 0.000002 0.000016 0.000001 63.272154 7.038247 -2.134947 -0.000001 -0.000010 2.999989 -5.000219 7.998689 -0.000139 -97.713472 -167.763803 7.034762 -179.999991 0.000005 -1.534998 73.459600 0.591885 -0.239609 0.000004 0.000002 2.251139 75.961150 8.013812 -1.963981 25.456991 -7.347748 0.000003 -100.144158 174.969243 -0.569703 -0.000005 -0.000003 -1.392829 -108.289965 -4.353940 -4.390225 -0.000001 0.000000 -2.305469 75.612523 -6.587338 -2.542047 25.459988 7.353846 -0.000042 
52.009705 -7.920507 50.911201 2.306132 3.670143 3.308281 1.947031 -0.865012 -0.331056 7.892863 -1.751717 -0.623537 9.538228 -1.759066 -0.602505 27.613412 0.035021 1.300800 -6.265315 5.095953 1.022564 -6.619544 -54.377643 -7.457276 -54.491577 -128.867133 -75.485837 0.000002 0.000000 -0.000003 63.009806 -10.068318 4.728642 -0.000001 0.000006 -3.000000 -5.000241 -7.998749 0.000160 -6.242496 61.878078 7.644235 -57.848048 127.014485 75.451522 0.000002 0.000017 0.000004 63.118591 7.100067 -2.164742 0.000000 -0.000010 2.999989 -5.000215 7.998690 -0.000142 -97.599872 -167.778734 7.061805 -179.999991 0.000006 -1.538003 73.458678 0.596918 -0.234662 0.000003 0.000002 2.252710 75.952831 8.020000 -1.981723 25.456989 -7.347749 0.000002 -100.034438 174.933207 -0.566485 -0.000005 -0.000004 -1.395150 -108.310606 -4.357668 -4.398642 -0.000002 0.000001 -2.307719 75.621737 -6.589175 -2.536941 25.459979 7.353841 -0.000040 
52.036003 -7.921637 50.912094 2.181385 3.665558 3.288402 1.940614 -0.866462 -0.334776 7.879868 -1.754704 -0.631073 9.525238 -1.762151 -0.610005 27.541906 -0.013916 1.312527 -6.207606 5.105627 1.025617 -6.676953 -54.636367 -7.547243 -54.713128 -128.865220 -75.611833 0.000002 -0.000001 -0.000000 62.850069 -10.137806 4.758862 -0.000003 0.000009 -2.999998 -5.000241 -7.998749 0.000156 -6.208073 61.981583 7.613105 -58.093149 126.981030 75.590202 0.000003 0.000017 0.000002 62.964365 7.163070 -2.195026 -0.000001 -0.000011 2.999991 -5.000219 7.998689 -0.000142 -97.485446 -167.792626 7.086421 -179.999991 0.000006 -1.539998 73.459552 0.602120 -0.229579 0.000004 0.000002 2.254369 75.943350 8.026156 -1.999085 25.456991 -7.347749 0.000003 -99.921556 174.898086 -0.566969 -0.000005 -0.000003 -1.397621 -108.330721 -4.360623 -4.406897 -0.000000 0.000000 -2.310180 75.632706 -6.591239 -2.531461 25.459880 7.353842 -0.000032 
52.026699 -7.914546 50.908302 2.056146 3.658728 3.268255 1.934703 -0.867815 -0.337934 7.867856 -1.757291 -0.637506 9.513225 -1.764817 -0.616406 27.466521 -0.069226 1.322175 -6.146339 5.118366 1.025671 -6.749694 -54.922808 -7.657845 -54.979024 -128.851341 -75.793195 0.000003 0.000000 -0.000004 62.694347 -10.206888 4.790741 -0.000004 0.000008 -2.999999 -5.000238 -7.998749 0.000159 -6.169276 62.088469 7.577256 -58.343073 126.949010 75.734579 0.000003 0.000017 -0.000001 62.809422 7.226944 -2.225460 -0.000001 -0.000010 2.999988 -5.000220 7.998693 -0.000141 -97.370063 -167.805645 7.107649 -179.999991 0.000006 -1.543003 73.462052 0.607501 -0.224342 0.000005 0.000001 2.256111 75.932907 8.032242 -2.016188 25.456988 -7.347750 0.000002 -99.805729 174.863798 -0.570125 -0.000005 -0.000003 -1.400249 -108.350262 -4.363768 -4.414167 -0.000001 0.000001 -2.312820 75.645206 -6.593507 -2.525516 25.459880 7.353840 -0.000033 
52.053104 -7.916898 50.916801 1.930388 3.649942 3.247876 1.929263 -0.869094 -0.340582 7.856781 -1.759537 -0.642932 9.502152 -1.767122 -0.621806 27.387674 -0.130028 1.329944 -6.081811 5.133778 1.023070 -6.836517 -55.232123 -7.787104 -55.283145 -128.827900 -76.022355 0.000001 -0.000001 -0.000002 62.541645 -10.275486 4.823714 -0.000003 0.000006 -3.000001 -5.000241 -7.998757 0.000155 -6.126387 62.197328 7.536882 -58.597504 126.918275 75.884836 0.000001 0.000017 0.000000 62.653633 7.291593 -2.256159 -0.000002 -0.000008 2.999990 -5.000217 7.998690 -0.000142 -97.253964 -167.817666 7.128178 -179.999991 0.000006 -1.545994 73.466054 0.613082 -0.218901 0.000004 0.000002 2.257920 75.921507 8.038280 -2.032827 25.456989 -7.347748 0.000001 -99.687301 174.830317 -0.575126 -0.000005 -0.000003 -1.403000 -108.369298 -4.366461 -4.420359 -0.000001 0.000000 -2.315620 75.658996 -6.595930 -2.519315 25.459878 7.353841 -0.000043 
